<!-- Svg Vector Icons : http://www.onlinewebfonts.com/icon -->
<svg version="1.1" xmlns="http://www.w3.org/2000/svg" xmlns:xlink="http://www.w3.org/1999/xlink">
<symbol id="box-icon" viewBox="0 0 1000 1000">
<metadata> Svg Vector Icons : http://www.onlinewebfonts.com/icon </metadata>
<g><g transform="translate(0.000000,511.000000) scale(0.100000,-0.100000)"><path d="M2131.7,4950.7c-42.6-42.6-56.2-75.5-56.2-129.8c0-56.2,120.1-530.6,244-960.6c9.7-32.9-36.8-34.9-766.9-34.9c-654.6,0-786.3-3.9-832.7-29c-71.7-36.8-96.8-83.3-96.8-184c0-63.9,11.6-92.9,56.2-137.5l56.2-56.2h852.1h852.1l21.3-62c9.7-34.9,364.1-1309.1,786.3-2833.3c422.2-1522.2,788.2-2841,811.4-2928.1l44.6-160.7l-93-58.1c-220.8-143.3-443.5-451.2-511.3-708.8c-36.8-145.3-36.8-412.5,0-557.8c75.5-286.6,327.3-606.2,592.6-753.3c329.2-184,722.3-195.6,1049.6-31c402.8,203.3,658.4,581,685.6,1016.7l11.6,178.2l1280.1,352.5c704.9,195.6,1305.3,366,1334.3,381.5c67.8,32.9,118.1,143.3,100.7,220.8c-17.4,77.5-112.3,153-193.7,153c-34.9,0-644.9-160.7-1353.7-358.3c-708.8-197.5-1293.6-358.3-1297.5-358.3c-3.9,0-31,36.8-56.2,83.3c-127.8,216.9-400.9,435.7-646.8,519c-83.3,27.1-201.4,48.4-323.4,54.2l-191.7,11.6l-459,1655.8C3777.8,145.9,3320.8,1794,3016.8,2895.9c-517.1,1863-559.7,2008.3-613.9,2058.6C2321.5,5030.1,2209.2,5028.1,2131.7,4950.7z M4965-2892.6c306-118.1,501.6-482.2,447.3-832.8c-54.2-346.6-269.2-577.1-602.3-641c-362.2-71.7-704.9,89.1-859.9,402.8c-62,123.9-63.9,139.4-63.9,352.5c0,209.1,3.9,230.5,60,348.6c137.5,290.5,389.3,433.8,734,420.2C4800.4-2848.1,4889.5-2863.6,4965-2892.6z"/><path d="M6165.7,2239.4c-1398.2-389.3-1936.6-546.1-1969.5-575.2c-25.2-23.2-52.3-65.9-60-94.9c-9.7-38.7,129.8-569.4,522.9-1992.8c497.7-1795.2,542.3-1942.4,594.5-1990.8c40.7-38.7,77.5-54.2,129.7-54.2c38.7,0,929.6,238.2,1979.2,530.6c2085.7,579,2014.1,553.9,2014.1,697.2c0,83.3-1055.5,3898.4-1090.3,3939.1c-27.1,32.9-135.6,83.3-172.4,79.4C8100.4,2775.9,7223.1,2533.8,6165.7,2239.4z M7999.7,2253c48.4-151,912.1-3288.4,912.1-3311.6c0-29.1-3348.4-966.4-3375.5-945.1c-15.5,13.6-950.9,3369.7-939.3,3377.5c5.8,5.8,3346.5,935.4,3369.7,939.3C7972.5,2314.9,7988,2285.9,7999.7,2253z"/><path d="M6973.3,1515.1c-56.2-38.7-79.4-83.3-193.7-391.2c-73.6-191.7-131.7-364.1-131.7-381.5c-1.9-19.4-5.8-34.9-11.6-34.9c-3.9,0-141.4,108.5-304.1,238.2c-162.7,131.7-317.6,249.8-342.8,263.4c-60,32.9-162.7,11.6-215-42.6c-23.2-25.2-104.6-209.2-178.2-410.6c-145.3-397-153-449.3-65.8-530.6c98.8-93,267.3-63.9,325.4,58.1l31,62l29-104.6c17.4-58.1,83.3-296.3,149.1-528.7c65.9-234.3,127.8-441.6,137.5-460.9c23.3-42.6,118.1-92.9,176.2-92.9c71.7,0,164.6,67.8,187.9,139.4c19.4,58.1,5.8,122-124,586.8c-79.4,288.6-149.1,532.6-154.9,546.1c-3.9,13.6,27.1,5.8,71.7-17.4c73.6-38.7,85.2-38.7,158.8-13.5c60,21.3,87.1,44.5,114.2,100.7l36.8,71.7l48.4-38.7c75.5-58.1,189.8-52.3,255.6,15.5c29,29,58.1,65.8,63.9,81.3c5.8,15.5,13.6,25.2,19.4,19.4c5.8-5.8,71.7-236.3,149.1-511.3c77.5-275,151-522.9,162.7-548.1c25.2-58.1,108.5-102.6,189.8-102.6c77.5,0,191.7,108.5,191.7,182.1c0,27.1-65.8,282.7-145.2,567.4c-79.4,284.7-141.4,519-137.5,522.9c1.9,3.9,32.9-7.8,67.8-25.2c168.5-83.3,356.3,104.6,271.1,269.2c-27.1,48.4-602.3,519-666.2,544.2C7083.6,1569.3,7041,1561.6,6973.3,1515.1z"/><path d="M7546.5-638.4C7345.1-696.5,6938.4-810.7,6646-894c-598.4-166.5-639.1-187.8-639.1-329.2c0-92.9,42.6-156.9,129.8-193.7c65.8-27.1,96.8-19.4,1009,236.3c857.9,240.1,948.9,269.2,997.4,321.5c120.1,129.7,31,329.2-145.3,325.4C7951.2-533.8,7749.8-582.2,7546.5-638.4z"/></g></g>
</symbol>
</svg>
