<svg style="position: absolute; width: 0; height: 0; overflow: hidden;" version="1.1" xmlns="http://www.w3.org/2000/svg" xmlns:xlink="http://www.w3.org/1999/xlink">
 <symbol id="delivery-icon" viewBox="200 100 400 400">
  <g>
  <path d="m589.98 343.59 7.6641-1.0898c-0.52344-0.87891-0.99609-1.6914-1.4297-2.4531l-0.21875-0.35938c-1.0078-1.7227-1.9414-3.3477-2.9805-4.8477-11-15.891-25.836-23.688-43.98-23.09-10.234 0.32422-19.32 2.8438-27.016 7.5117-7.7422 4.6992-14.129 11.598-18.984 20.504-3.5703 6.5508-6.4023 13.652-9.1406 20.52l-0.16797 0.4375c-1.1328 2.8203-2.2969 5.7422-3.5078 8.5742-0.48438 1.168-0.90234 2.4023-1.3125 3.5898l-0.125 0.36719c-0.125 0.38672-0.25391 0.77734-0.39844 1.168 1.3984 0.11328 2.7578 0.16016 4.0703 0.16016 3.2656 0 6.3477-0.40625 9.3203-1.0625-0.24219 1.8906-0.38672 3.8086-0.38672 5.7617 0 25.773 20.887 46.668 46.668 46.668 25.777 0 46.668-20.895 46.668-46.668 0-13.559-5.8125-25.73-15.047-34.258 3.3906-0.45312 6.7852-0.9375 10.305-1.4336zm-41.863 60.156c-13.488 0.042968-24.391-10.758-24.523-24.305-0.14453-13.473 11.031-24.684 24.523-24.613 13.477 0.085937 24.402 11.059 24.402 24.492 0 13.457-10.887 24.363-24.402 24.426z" />
  <path d="m558.07 379.28c0 5.5312-4.4805 10.012-10.012 10.012-5.5273 0-10.012-4.4805-10.012-10.012 0-5.5273 4.4844-10.012 10.012-10.012 5.5312 0 10.012 4.4844 10.012 10.012" />
  <path d="m249.62 314.79c11.031-7.3789 23.762-12.633 40.066-16.527 8.207-1.9609 15.469-2.918 22.195-2.918 4.5234 0 8.9297 0.44141 13.09 1.3008 15.418 3.1719 24.809 10.535 28.711 22.52 3.1875 9.7578 3.8633 19.785 2.0234 29.785-0.25391 1.3984-0.57422 2.8359-0.94141 4.2812-1.1641 4.543-2.7109 8.8906-4.3477 13.484l-0.29297 0.80859c-0.57812 1.6562-1.1836 3.3359-1.7617 5.0352 2.6992 0.09375 5.457 0.16016 8.1445 0.24219l0.95703 0.023437c7.6523 0.19141 15.582 0.39844 23.484 1.0391 0.41016 0.03125 0.82813 0.050781 1.2148 0.050781 5.0078 0 8.1094-2.7266 10.723-5.6797 1.9102-2.1406 2.207-4.3047 0.86328-6.1055-0.87891-1.1836-2.4648-1.9648-3.6602-2.2969-0.81641-0.23047-1.6289-0.46484-2.457-0.72656-3.9492-1.2266-9.7578-3.3594-14.512-7.6406-0.082032-0.074219-0.15625-0.14453-0.24219-0.23047-0.69531-0.63281-1.3555-1.3086-1.9531-1.9844-7.0977-8.125-8.1133-18.09-3.125-30.465 6.4219-15.871 16.488-28.137 29.922-36.457 0.71484-0.44922 1.1875-1.3945 1.668-2.3008 0.17969-0.375 0.36719-0.72266 0.55859-1.0508-0.38672-0.25391-0.76562-0.55469-1.0938-0.82031-0.89062-0.69531-1.7969-1.4258-2.6133-1.4258-4.8359 0.13672-10.035 0.58594-15.922 1.3672-3.1367 0.41797-6.3164 0.98438-9.1289 1.4883-5.2266 0.93359-10.633 1.9023-16.066 2.1289-11.461 0.48047-23.133 0.55859-34.426 0.62891h-0.19141c-2.332 0.019532-4.7148 0.039063-7.0977 0.054688v-1.2773c5.1445 0.09375 10.41 0.17578 15.605 0.17578 14.223 0 31.066-0.52734 48.074-4.4727-0.011719-0.15625-0.039063-0.32812-0.0625-0.49219h-63.617v-72.844h-20.016v67.199h-5.1953v-67.199h-53.027v67.199h-5.1953v-67.199h-20.484v74.531h-8.8906v10.516h78.973c-4.4492 1.4492-8.8789 2.9883-13.191 4.7148-20.539 8.2266-37.016 21.238-48.992 38.664-7.2656 10.598-12.141 22.586-14.453 35.629-0.38672 2.1797-0.4375 3.5469 2.0664 4.2266 2.0469 0.54297 2.8828 0.26172 3.6523-1.0781 0.19141-0.34766 0.38672-0.75781 0.55469-1.2461 1.6172-4.4258 3.5352-8.9492 5.7109-13.426 8.7773-18 20.125-31.484 34.699-41.23z" />
  <path d="m457.62 225.02c1.3984-2.2969 1.2148-3.9766-0.59766-5.5234-0.82813 1.1758-1.1562 2.332-0.96875 3.3477 0.16406 0.83594 0.69922 1.582 1.5664 2.1758z" />
  <path d="m460.27 224.68c0.71484-0.14844 1.4297-0.30469 2.1406-0.46094l0.55859-0.125c1.8359-0.39062 3.7227-0.79688 5.5703-1.2305 0.34375-0.082031 0.70313-0.13672 1.0586-0.21094 0.99609-0.17969 2.1289-0.38672 2.832-0.96875 0.85156-0.73438 1.7109-2.4023 1.5312-3.4453-0.125-0.75781-1.7227-2.1289-2.4883-2.1289v-0.45312l-0.050781 0.46094c-3 0.42969-5.9297 1.1133-8.7617 1.7812l-0.31641 0.070312c-0.93359 0.23047-1.8711 0.44141-2.7812 0.64844l0.26562 2.2773c0.13672 1.25 0.28125 2.4648 0.44141 3.7852z" />
  <path d="m346.55 371.05c7-14.082 9.4375-28.156 7.4648-43.047-1.9531-14.711-10.004-24.035-24.621-28.516-5.3633-1.6445-10.945-2.4375-17.043-2.4375-4.5352 0-9.2891 0.4375-14.555 1.3438-1.1875 0.20703-2.3516 0.47266-3.4648 0.72656-0.69531 0.16016-1.3867 0.32422-2.0977 0.47266-4.6719 0.96875-9.1836 2.1523-13.426 3.4961l-0.074219 0.023438c-3.5547 1.1211-6.9883 2.375-10.23 3.7266-3.7148 1.5508-7.3359 3.2969-10.82 5.2266l-0.0625 0.125-0.17578 0.007813c-0.52734 0.29688-1.0508 0.60547-1.582 0.91016-0.54688 0.3125-1.1016 0.60938-1.6484 0.91016-0.95703 0.52734-1.9492 1.0625-2.8633 1.6602-14.512 9.3828-25.828 22.613-34.613 40.457-1.8125 3.6836-3.3984 7.4648-4.9336 11.125l-0.65234 1.5352c-0.45313 1.0781-0.91016 2.1641-1.3828 3.2422h14.18c-0.51172 2.7266-0.80078 5.5117-0.80078 8.3828 0 25.145 20.383 45.527 45.535 45.527 25.148 0 45.535-20.383 45.535-45.527 0-2.8672-0.29688-5.6562-0.80078-8.3828h8.0938c0.58984-2.1719 1.1992-4.375 1.8047-6.5391l0.30469-1.082c1.7305-6.2266 3.5156-12.664 5.0391-19.07 0.074219-0.3125 0.074219-0.61719 0.074219-0.94141 0-0.17578-0.007813-0.35547 0.007812-0.52734 0.054688-0.93359-0.0625-1.8242-0.35547-2.6523l-0.054687-0.054688-0.023437-0.1875c-0.023438-0.042969-0.042969-0.09375-0.0625-0.13672l-0.042969-0.11719c-0.042969-0.11719-0.082031-0.23828-0.11719-0.35938-0.050781-0.1875-0.097656-0.35938-0.17969-0.49219-1.082-1.7109-2.9492-2.8945-5.3867-3.4141-7.4805-1.6133-15.438-3.2617-23.301-4.2109-4.9766-0.60547-10.078-0.91016-15.176-0.91016-11 0-22.164 1.3359-34.141 4.0742-0.49609 0.11719-1 0.14453-1.4922 0.16797l-1.5547 0.050781 0.58984-0.75391c0.55859-0.72656 1.1953-0.94141 1.6875-1.0508 12.805-2.832 24.219-4.2109 34.902-4.2109 4.793 0 9.5156 0.28125 14.051 0.82812 7.418 0.91016 15.207 2.2773 24.508 4.3125 3.1484 0.67969 5.3945 2.0977 6.6953 4.2109 1.3633 2.207 1.6133 5.0664 0.74219 8.4609-0.41797 1.6289-0.87891 3.2734-1.3203 4.8711l-0.70312 2.5742-4.8789 17.715h1.3008l8.4688 0.011719c3.4414 0 7.5273-0.011719 11.777-0.085937 0.55469-0.003907 1.5312-0.76563 1.875-1.4688zm-83.117 26.762h0.38672c13.141-0.12891 22.754-6.5078 28.543-18.941 0.55469-1.1641 1.9961-2.0859 3.1094-2.457 1.082-0.35938 2.0156-0.75781 2.8828-1.207 0.25 1.5664 0.41797 3.168 0.41797 4.7969-0.011719 16.801-13.609 30.406-30.465 30.477-15.367 0.050781-28-11.188-30.223-25.996 6.2266 8.8242 14.715 13.328 25.348 13.328z" />
  <path d="m341.49 374.19c-0.3125 2.5625 0.78906 4.3438 3.1992 5.1406 2.3633 0.78516 5.8906 1.8398 9.332 1.8867 23.516 0.28125 44.73 0.51172 66.254 0.51172 3.2656 0 6.5391-0.007813 9.8203-0.019531 8.7617-0.039063 17.645-0.61719 26.227-1.168l6.0039-0.38672c0.89062-0.054688 1.8242-0.59766 2.7109-1.1211l0.15625-0.09375c0.30469-0.17969 0.62109-0.36719 0.93359-0.52344l-0.16797-0.49609z" />
  <path d="m498 278.28c-1.8125-6.9258-4.5547-13.688-7.1914-20.227l-0.36719-0.91406c-0.87891-2.1914-1.7852-4.4375-2.6367-6.6641-1.9805-5.1875-3.4766-10.801-0.96875-16.605 0.11328-0.26172 0.14453-0.51563 0.17969-0.78516 0.023437-0.12891 0.039063-0.26562 0.074219-0.39844 0.12891-0.67969 0.125-1.3867-0.039063-2.0703l-0.023437-0.15625c-0.023438-0.050781-0.050782-0.19922-0.074219-0.34375-0.050781-0.26172-0.097656-0.48438-0.20703-0.73438-1.0938-2.3906-1.1758-4.5156-0.26562-6.1406 0.87891-1.5508 2.6016-2.5312 5.0195-2.8438 2.1289-0.24219 4.6055 0.082031 6.5156 0.36719l0.38672 0.054687c0.69141 0.097656 1.4141 0.19922 2.1016 0.26562 1.25 0.12891 2.4766 0.31641 3.6211 0.51172l0.98438 0.14453 1.0703-29.289c-10.277 1.7969-17.328 9.5508-23.004 15.793l-2.0156 2.2227 2.6133-5.6016c-1.5938 0.57422-3.1484 1.1328-4.668 1.6797l-5.2656 1.8906c-3.9883 1.4258-4.1953 1.6992-3.4766 6.4141 0.55859-0.11719 1.1094-0.21875 1.6562-0.31641l0.62109-0.11719c1.8867-0.35547 4.0195-0.75781 6.0781-1.2695 2.1523-0.52734 3.5977 0.37891 3.9141 2.1602 0.24219 1.4141-0.26562 3.2969-1.1211 4.2109-1.6875 1.7812-3.6445 3.3477-5.3828 4.7305-0.49609 0.41016-0.99609 0.80859-1.4805 1.2148-1.1562 0.92578-1.0586 1.6875-0.39844 3.0195 0.30469 0.62109 0.60938 1.2383 0.91016 1.8594l0.52344 1.0586c2.0039 4.0117 4.0703 8.1523 5.418 12.48 1.8984 6.0664 3.6328 12.301 5.3125 18.324l0.085938 0.29297c2.0391 7.3281 4.1562 14.91 6.5625 22.238 3.0352 9.2383 3.9375 17.141 2.8555 24.852-3.2227 22.781-15.008 39.145-35.023 48.633-9.8438 4.668-20.656 6.9375-33.051 6.9375-5.3008 0-10.863-0.41797-17.012-1.2578-3.6953-0.51563-7.3789-1.1875-10.926-1.8398-1.457-0.26562-2.9688-0.54297-4.4844-0.81641 2.207 5.3008-0.98438 8.125-4.082 10.863l-0.26562 0.24219c-0.52344 0.46484-1.0703 0.95312-1.5664 1.4492l0.074219 0.011719c0.29297 0.050781 0.51172 0.085937 0.71484 0.09375l8.8359 0.26172c21.473 0.64844 44.32 1.3359 66.684 1.9297 1.0078 0 2.3477-0.64844 3.0352-1.4492 10.508-12.531 18.207-24.812 23.539-37.574 8.6719-20.809 10.508-40.039 5.6094-58.793z" />
  <path d="m496.06 244.46c-1.2148-3.0039-2.5-6.0117-3.9492-9.3398l-0.14453-0.37891c-0.53516-1.2188-1.0586-2.457-1.6172-3.7539-3.0859 4.418-3.9258 8.7227-2.5625 13.168 1.7109 5.5547 4.082 11.117 6.1836 16.027l0.0625 0.16016c6.2734 14.66 8.9219 28.742 8.082 43.039-1.0938 18.871-7.3438 36.828-19.113 54.867-2.6641 4.0742-5.4688 7.9453-8.4453 12.047l-0.78906 1.0781c-0.94531 1.3086-1.9102 2.6367-2.8828 3.9805 4.3125-1.5977 7.9844-4.043 10.938-7.2969 16.27-17.891 25.145-39.219 26.383-63.387 0.92969-18.34-2.9219-37.473-12.145-60.211z" />
  <path d="m582.7 313.91c-1.0469-1.5938-2.5-2.5391-4.0938-2.668-2.2578-0.17578-4.668-0.25391-7.5586-0.25391-1.8711 0-3.7773 0.03125-5.6133 0.0625l-0.36719 0.011719c-0.82812 0.011718-1.668 0.023437-2.5 0.039062 7.7656 1.9805 14.766 5.5625 21.305 10.871 0.75391-2.6992 0.31641-5.8164-1.1719-8.0625z" />
  <path d="m516.22 289.41-0.16797-0.51562c-1.3359-4.0586-2.6875-8.1758-4.3984-12.051-2.0039-4.4844-1.75-3.9336-5.5703-11.543l-0.125-0.26172c-0.38672-0.75391-0.76562-1.5195-1.1562-2.2969 5.543 22.582 8.9336 46.66-0.48438 70.945 0.70312-0.87891 1.4141-1.7539 2.1406-2.625l0.54688-0.66016c1.2773-1.5117 2.5898-2.9609 3.9141-4.3047 0.14453-0.14844 0.29297-0.29687 0.44922-0.4375 3.2773-3.2852 6.5391-5.8906 9.957-7.9258 0.085937-0.050781 0.16797-0.10547 0.26562-0.14844l0.16797-0.09375c0.34375-0.20703 0.67969-0.40625 1.0469-0.60547 0.74219-0.39844 1.4453-0.78906 2.1797-1.1367l-5.2773-2.9297 0.55859-1.2148 7.3984-0.77734v-17.023c-0.65234-0.12891-1.2617-0.25391-1.8711-0.37891l-0.23047-0.050782c-2.0391-0.41797-4.1328-0.85938-6.2734-1.1328-1.8945-0.23828-2.5352-1.1836-3.0703-2.832z" />
  <path d="m513.2 215.57c3.9883-5.3867 5.9531-16.973 3.707-21.91-3.1719 2.7812-5.2031 6.3281-5.8555 10.277-0.6875 3.9727 0.070313 7.9805 2.1484 11.633z" />
  <path d="m511.16 215.73c-3.7227-7.3906-2.6641-15.367 2.9062-21.879 0.46094-0.54297 0.93359-1.0781 1.4453-1.6484l0.44922-0.51562c-1.4297-0.50391-2.6758-0.76562-3.707-0.76562-2.4883 0-3.8281 1.5547-4.0703 4.7656-0.46094 5.8164-0.66406 11.793-0.86328 17.566v0.42188c-0.085937 2.4062-0.16797 4.9023-0.26562 7.3789 2.7305-0.007813 4.2695-0.42969 4.8203-1.3242 0.48047-0.77734 0.23828-2.082-0.71484-4z" />
  <path d="m479.12 214.98c-0.95703 0.085937-1.9414 0.42969-2.8945 0.76562l-0.23047 0.082031c-0.24219 0.085938-0.47266 0.16797-0.71484 0.25l1.3516 3.8633c0.31641-0.12891 0.63281-0.25391 0.94531-0.37891 0.98438-0.38672 1.9531-0.76562 2.7266-1.332 0.49609-0.36719 0.89062-1.5859 0.70312-2.1797-0.15625-0.45313-1.1875-1.0625-1.8125-1.0625v-0.45313z" />
  <path d="m369.81 271.96c-0.35547 0.24219-0.71484 0.49219-1.0898 0.75781-1.3945 0.95703-2.8125 1.9102-4.2695 2.5508h3.3672c4.7148-4.0898 10.188-4.7422 15.457-4.7422 1.4805 0 3 0.050781 4.4727 0.097656 1.2617 0.039062 2.5625 0.085938 3.8633 0.097656v4.543h1.8359c-0.050781-1.0703-0.050781-2.1406-0.039063-3.1719 0.011719-0.40625 0.011719-0.81641 0.011719-1.2617 0.12891-0.039062 0.24219-0.074219 0.36719-0.11719 0.16797-0.070313 0.26563-0.09375 0.30469-0.09375l9.1641-0.070313c3.707-0.019531 5.0664-1.1875 5.625-4.8164 0.65234-4.3477-0.14453-8.6719-2.4453-13.199-1.1875-2.332-2.1289-3.5234-3.9375-3.5234-0.72656 0-1.6055 0.17969-3.0234 0.62109-6.5625 2.0273-13.184 3.0547-19.688 3.0547-7.5742 0-15.23-1.3828-22.762-4.1016-5.4688-1.9805-10.691-4.1875-15.082-6.0898-1.6719-0.72266-3.3711-1.793-4.9102-3.0977-2.4766-2.1094-5.4258-3.2656-8.3125-3.2656-3.0312 0-5.7812 1.2695-7.7344 3.5781-0.49219 0.56641-0.69531 1.9336-0.48438 2.7383 4.3281 16.699 41.852 28.863 49.309 29.512z" />
  <path d="m281.93 397.42c8.3945 0 15.551-6.2773 15.637-13.715l0.007813-0.085937-5.1836-1.0156-0.082031-0.011718-0.039063 0.082031c-2.3828 6.2852-6.7461 10.957-13.352 14.285l-0.26562 0.12891 0.29688 0.0625c0.98047 0.18359 1.9922 0.26953 2.9805 0.26953z" />
  <path d="m222.31 315.71c1.6719 0 3.3555 0 5.0273-0.007813l0.48438-0.007813c0.67188 0 1.3672-0.023437 1.7852-0.36719 2.4844-2.0586 4.9609-4.2188 7.3555-6.3047 0.80078-0.71094 1.6133-1.4141 2.4258-2.1172l0.23047-0.20703-0.30469-0.023438c-0.51562-0.050781-1.0312-0.10547-1.5508-0.16016-1.8594-0.1875-3.7695-0.38672-5.5859-0.38672-2.0391 0-3.7344 0.25-5.1836 0.77734-3.2461 1.168-6.2539 3.168-9.1602 5.0977-1.2383 0.82812-2.5273 1.6797-3.8086 2.4531l-0.074219 0.050781 0.20703 1.1953h0.11328c2.6719 0.007813 5.3477 0.007813 8.0391 0.007813z" />
  <path d="m207.15 319.61 0.17578-0.0625c3.5234-1.1523 5.5195-0.019531 6.7695 4.0742 0.44141 1.4258 1.0938 2.7578 1.793 4.1758 0.29688 0.62891 0.61719 1.2773 0.91406 1.9336l0.09375 0.19141 4.3789-5.207c2.1836-2.6016 4.4102-5.25 6.8203-8.1133l0.1875-0.21094h-21.129z" />
  <path d="m209.68 319.91v11.301h6.6719c-1.4805-3.4219-2.8047-6.6445-4.3242-9.7734-0.30469-0.65234-1.375-0.92969-2.3477-1.5273z" />
  <path d="m235.17 187.2h53.027v14.473h-53.027z" />
  <path d="m293.39 187.2h22.922v14.473h-22.922z" />
  <path d="m204.7 187.2h25.273v14.473h-25.273z" />
  <path d="m229.97 201.68h5.1953v1.8164h-5.1953z" />
  <path d="m288.2 201.68h5.1953v1.8164h-5.1953z" />
  <path d="m118.37 254.75h62.762v8.3086h-62.762z"/>
  <path d="m102.26 288.02h78.879v8.3125h-78.879z"/>
  <path d="m88.684 317.12h92.449v8.3125h-92.449z"/>
 </g>
 </symbol>
</svg>
